<?xml version="1.0" encoding="UTF-8" standalone="no"?>
<!DOCTYPE svg PUBLIC "-//W3C//DTD SVG 1.1//EN"
 "http://www.w3.org/Graphics/SVG/1.1/DTD/svg11.dtd">
<!-- Generated by graphviz version 2.40.1 (20161225.0304)
 -->
<!-- Title: %0 Pages: 1 -->
<svg width="377pt" height="251pt"
 viewBox="0.00 0.00 377.00 251.00" xmlns="http://www.w3.org/2000/svg" xmlns:xlink="http://www.w3.org/1999/xlink">
<g id="graph0" class="graph" transform="scale(1 1) rotate(0) translate(4 247)">
<title>%0</title>
<g id="a_graph0"><a xlink:title="Data Model">
<polygon fill="#ffffff" stroke="transparent" points="-4,4 -4,-247 373,-247 373,4 -4,4"/>
</a>
</g>
<!-- crime_scene_report -->
<g id="crime_scene_report" class="node">
<title>crime_scene_report</title>
<polygon fill="#efebdd" stroke="transparent" points="185,-215 185,-235 299,-235 299,-215 185,-215"/>
<text text-anchor="start" x="186.8071" y="-220.4" font-family="Times,serif" font-size="14.00" fill="#000000">crime_scene_report</text>
<polygon fill="none" stroke="#555555" points="184,-214 184,-236 300,-236 300,-214 184,-214"/>
</g>
<!-- drivers_license -->
<g id="drivers_license" class="node">
<title>drivers_license</title>
<polygon fill="#efebdd" stroke="transparent" points="280,-61 280,-81 368,-81 368,-61 280,-61"/>
<text text-anchor="start" x="281.6297" y="-66.4" font-family="Times,serif" font-size="14.00" fill="#000000">drivers_license</text>
<polygon fill="#ffffff" stroke="transparent" points="280,-41 280,-61 368,-61 368,-41 280,-41"/>
<text text-anchor="start" x="282" y="-47.4" font-family="Times,serif" text-decoration="underline" font-size="14.00" fill="#444444">id</text>
<polygon fill="none" stroke="#555555" points="279,-40 279,-82 369,-82 369,-40 279,-40"/>
</g>
<!-- facebook_event_checkin -->
<g id="facebook_event_checkin" class="node">
<title>facebook_event_checkin</title>
<polygon fill="#efebdd" stroke="transparent" points="1.5,-181 1.5,-201 144.5,-201 144.5,-181 1.5,-181"/>
<text text-anchor="start" x="3.4207" y="-186.4" font-family="Times,serif" font-size="14.00" fill="#000000">facebook_event_checkin</text>
<polygon fill="#ffffff" stroke="transparent" points="1.5,-161 1.5,-181 144.5,-181 144.5,-161 1.5,-161"/>
<text text-anchor="start" x="3.5" y="-166.4" font-family="Times,serif" font-size="14.00" fill="#444444">person_id</text>
<polygon fill="#ffffff" stroke="transparent" points="1.5,-141 1.5,-161 144.5,-161 144.5,-141 1.5,-141"/>
<text text-anchor="start" x="3.5" y="-147.4" font-family="Times,serif" text-decoration="underline" font-size="14.00" fill="#444444">event_id</text>
<polygon fill="none" stroke="#555555" points="0,-140 0,-202 145,-202 145,-140 0,-140"/>
</g>
<!-- person -->
<g id="person" class="node">
<title>person</title>
<polygon fill="#efebdd" stroke="transparent" points="182,-81 182,-101 242,-101 242,-81 182,-81"/>
<text text-anchor="start" x="193.3401" y="-86.4" font-family="Times,serif" font-size="14.00" fill="#000000">person</text>
<polygon fill="#ffffff" stroke="transparent" points="182,-61 182,-81 242,-81 242,-61 182,-61"/>
<text text-anchor="start" x="184" y="-67.4" font-family="Times,serif" text-decoration="underline" font-size="14.00" fill="#444444">id</text>
<polygon fill="#ffffff" stroke="transparent" points="182,-41 182,-61 242,-61 242,-41 182,-41"/>
<text text-anchor="start" x="183.6199" y="-46.4" font-family="Times,serif" font-size="14.00" fill="#444444">license_id</text>
<polygon fill="none" stroke="#555555" points="181,-40 181,-102 243,-102 243,-40 181,-40"/>
</g>
<!-- facebook_event_checkin&#45;&gt;person -->
<g id="facebook_event_checkin_1" class="edge">
<title>facebook_event_checkin:person_id&#45;&gt;person:id</title>
<path fill="none" stroke="#555555" d="M144.5,-171C187.8875,-171 143.63,-87.449 171.9535,-73.0886"/>
<polygon fill="#555555" stroke="#555555" points="172.9218,-76.4623 182,-71 171.4969,-69.6088 172.9218,-76.4623"/>
</g>
<!-- get_fit_now_member -->
<g id="get_fit_now_member" class="node">
<title>get_fit_now_member</title>
<polygon fill="#efebdd" stroke="transparent" points="10.5,-101 10.5,-121 134.5,-121 134.5,-101 10.5,-101"/>
<text text-anchor="start" x="12.2377" y="-106.4" font-family="Times,serif" font-size="14.00" fill="#000000">get_fit_now_member</text>
<polygon fill="#ffffff" stroke="transparent" points="10.5,-81 10.5,-101 134.5,-101 134.5,-81 10.5,-81"/>
<text text-anchor="start" x="12.5" y="-87.4" font-family="Times,serif" text-decoration="underline" font-size="14.00" fill="#444444">id</text>
<polygon fill="#ffffff" stroke="transparent" points="10.5,-61 10.5,-81 134.5,-81 134.5,-61 10.5,-61"/>
<text text-anchor="start" x="12.5" y="-66.4" font-family="Times,serif" font-size="14.00" fill="#444444">person_id</text>
<polygon fill="none" stroke="#555555" points="9.5,-60 9.5,-122 135.5,-122 135.5,-60 9.5,-60"/>
</g>
<!-- get_fit_now_member&#45;&gt;person -->
<g id="get_fit_now_member_1" class="edge">
<title>get_fit_now_member:person_id&#45;&gt;person:id</title>
<path fill="none" stroke="#555555" d="M134.5,-71C151.8177,-71 158.481,-71 171.9697,-71"/>
<polygon fill="#555555" stroke="#555555" points="172,-74.5001 182,-71 172,-67.5001 172,-74.5001"/>
</g>
<!-- interview -->
<g id="interview" class="node">
<title>interview</title>
<polygon fill="#efebdd" stroke="transparent" points="43.5,-21 43.5,-41 102.5,-41 102.5,-21 43.5,-21"/>
<text text-anchor="start" x="46.5659" y="-26.4" font-family="Times,serif" font-size="14.00" fill="#000000">interview</text>
<polygon fill="#ffffff" stroke="transparent" points="43.5,-1 43.5,-21 102.5,-21 102.5,-1 43.5,-1"/>
<text text-anchor="start" x="45.3948" y="-6.4" font-family="Times,serif" font-size="14.00" fill="#444444">person_id</text>
<polygon fill="none" stroke="#555555" points="42,0 42,-42 103,-42 103,0 42,0"/>
</g>
<!-- interview&#45;&gt;person -->
<g id="interview_1" class="edge">
<title>interview:person_id&#45;&gt;person:id</title>
<path fill="none" stroke="#555555" d="M102.5,-11C142.9627,-11 138.8922,-61.1306 171.7007,-69.7468"/>
<polygon fill="#555555" stroke="#555555" points="171.6504,-73.2664 182,-71 172.496,-66.3177 171.6504,-73.2664"/>
</g>
<!-- person&#45;&gt;drivers_license -->
<g id="person_1" class="edge">
<title>person:license_id&#45;&gt;drivers_license:id</title>
<path fill="none" stroke="#555555" d="M242,-51C254.9306,-51 260.4361,-51 269.8862,-51"/>
<polygon fill="#555555" stroke="#555555" points="270,-54.5001 280,-51 270,-47.5001 270,-54.5001"/>
</g>
</g>
</svg>

